<?xml version="1.0" encoding="utf-8"?>
<!-- Svg Vector Icons : http://www.onlinewebfonts.com/icon -->
<!DOCTYPE svg PUBLIC "-//W3C//DTD SVG 1.1//EN" "http://www.w3.org/Graphics/SVG/1.1/DTD/svg11.dtd">
<svg version="1.1" xmlns="http://www.w3.org/2000/svg" xmlns:xlink="http://www.w3.org/1999/xlink" x="0px" y="0px" viewBox="0 0 1000 1000" enable-background="new 0 0 1000 1000" xml:space="preserve">
<metadata> Svg Vector Icons : http://www.onlinewebfonts.com/icon </metadata>
<g><g transform="translate(0.000000,511.000000) scale(0.100000,-0.100000)"><path d="M835.9,4153c-334.9-95.7-622-401.9-704.3-750.2c-42.1-183.7-42.1-3150.1,0-3318.6c90-352.1,323.4-608.6,667.9-734.9l135.9-49.8l3980.7-5.7C7628-710,8939-704.2,9030.8-690.8c310,45.9,622,269.8,754.1,537.8c122.5,252.6,118.6,195.2,112.9,1954l-5.7,1594.2l-45.9,114.8c-118.6,296.6-327.3,509.1-618.2,627.7l-101.4,42.1l-4086,3.8C1176.5,4187.5,948.8,4185.6,835.9,4153z M9126.5,3733.9c178-82.3,312-250.7,352.1-440.2c13.4-65.1,21-428.7,21-1027.7v-928.2H5002.2H504.8V2266c0,930.1,7.7,1060.3,70.8,1184.7c40.2,78.5,176.1,220.1,243,254.5c156.9,82.3,23,80.4,4212.3,76.6l3999.9-3.8L9126.5,3733.9z M9490.1,553.1c0-363.6-1.9-377-51.7-480.4c-61.3-132-168.4-243-294.7-306.2l-93.8-45.9l-4022.8-5.7l-4022.8-3.8L899-248.8C765.1-199,633-72.7,566,70.8c-47.8,103.3-51.7,126.3-57.4,459.3c-3.8,191.4-1.9,361.7,3.8,377c9.6,24.9,558.8,28.7,4493.7,24.9l4484.1-5.7V553.1z"/><path d="M1448.3,3356.9c-116.7-49.8-120.6-70.8-120.6-794.2c0-729.2,1.9-744.5,128.2-796.1c82.3-36.4,178-9.6,235.4,63.2c36.4,47.8,38.3,76.6,38.3,731.1c0,746.4,1.9,736.8-114.8,796.1C1547.8,3391.3,1526.8,3391.3,1448.3,3356.9z"/><path d="M2667.4,3353c-112.9-59.3-114.8-65.1-114.8-786.6c0-733,1.9-748.3,128.2-800c82.3-36.4,178-9.6,235.4,63.2c36.4,47.8,38.3,76.6,38.3,734.9v687.1l-51.7,57.4C2833.9,3381.7,2755.4,3397.1,2667.4,3353z"/><path d="M3898,3358.8c-116.7-53.6-120.6-72.7-120.6-796.2c0-729.2,1.9-744.5,128.2-796.1c82.3-36.4,178-9.6,235.4,63.2c36.4,47.8,38.3,76.6,38.3,734.9v687.1l-51.7,57.4C4064.5,3377.9,3982.2,3395.2,3898,3358.8z"/><path d="M5122.8,3358.8c-116.7-53.6-120.6-72.7-120.6-800c0-614.3,1.9-660.3,36.4-715.8c72.7-120.6,237.3-126.3,327.3-11.5c36.4,44,38.3,80.4,38.3,733v687.1l-51.7,57.4C5289.3,3377.9,5207,3395.2,5122.8,3358.8z"/><path d="M6347.7,3358.8c-116.7-53.6-120.6-72.7-120.6-796.2c0-729.2,1.9-744.5,128.2-796.1c82.3-36.4,178-9.6,235.4,63.2c36.4,47.8,38.3,76.6,38.3,734.9v687.1l-51.7,57.4C6514.2,3377.9,6431.9,3395.2,6347.7,3358.8z"/><path d="M7572.5,3358.8c-116.7-53.6-120.6-72.7-120.6-796.2c0-729.2,1.9-744.5,128.2-796.1c82.3-36.4,178-9.6,235.4,63.2c36.4,47.8,38.3,76.6,38.3,734.9v687.1l-51.7,57.4C7739,3377.9,7656.7,3395.2,7572.5,3358.8z"/><path d="M8797.3,2133.9c-63.2-28.7-120.6-114.8-120.6-183.7c0-70.8,57.4-155,128.2-183.7c195.2-82.3,363.6,160.8,222,317.7C8963.8,2153.1,8881.6,2170.3,8797.3,2133.9z"/><path d="M981.3,459.4c-91.9-93.8-65.1-271.8,49.8-323.4c72.7-32.5,7869.6-32.5,7942.3,0c114.8,51.7,141.6,229.7,49.8,323.4l-55.5,55.5H5002.2H1036.8L981.3,459.4z"/><path d="M3277.9-1140.6c-63.2-34.4-176.1-185.6-227.7-300.5c-59.3-134-80.4-313.9-55.5-488c19.1-141.6,51.7-246.9,283.2-905.2c82.3-235.4,97.6-298.5,97.6-417.2c0-160.8-24.9-229.7-122.5-344.5c-57.4-68.9-68.9-99.5-68.9-170.3c0-183.7,191.4-262.2,334.9-135.9c179.9,156.9,264.1,357.9,262.2,637.3c0,235.4-34.5,369.4-202.9,807.6c-145.4,382.8-183.7,518.6-183.7,664.1c0,126.3,32.5,214.3,118.7,323.4c82.3,103.4,88,218.2,13.4,292.8C3465.5-1117.6,3348.7-1098.5,3277.9-1140.6z"/><path d="M4895.1-1146.3c-80.4-51.7-210.5-252.6-250.7-384.7c-44-145.4-38.3-392.3,11.5-583.7c23-82.3,95.7-298.5,162.7-478.4c151.2-398.1,183.7-518.6,183.7-675.6c0-143.5-26.8-214.4-122.5-327.3c-57.4-68.9-68.9-99.5-68.9-170.3c0-68.9,11.5-95.7,55.5-141.6c132.1-130.2,317.7-32.5,453.6,239.2c153.1,310,124.4,599-118.6,1221c-223.9,578-235.4,756-61.3,977.9c120.6,151.2,65.1,329.2-111,350.2C4975.5-1111.9,4937.2-1121.5,4895.1-1146.3z"/><path d="M6521.8-1148.3c-78.5-47.9-210.5-248.8-250.7-382.8c-44-147.4-38.3-392.3,11.5-585.6c23-84.2,95.7-300.5,164.6-480.4c149.3-398.1,181.8-514.8,181.8-671.7c0-143.5-26.8-214.4-122.5-327.3c-57.4-68.9-68.9-99.5-68.9-170.3c0-68.9,11.5-95.7,55.5-141.6c132-130.2,319.6-30.6,451.7,239.2c153.1,315.8,128.2,593.3-114.8,1217.2c-225.8,581.8-237.3,778.9-59.3,989.4c70.8,84.2,80.4,170.3,30.6,250.7C6738.1-1110,6627.1-1085.1,6521.8-1148.3z"/></g></g>
</svg>