<?xml version="1.0" encoding="utf-8"?>
<!-- Svg Vector Icons : http://www.onlinewebfonts.com/icon -->
<!DOCTYPE svg PUBLIC "-//W3C//DTD SVG 1.1//EN" "http://www.w3.org/Graphics/SVG/1.1/DTD/svg11.dtd">
<svg version="1.1" xmlns="http://www.w3.org/2000/svg" xmlns:xlink="http://www.w3.org/1999/xlink" x="0px" y="0px" viewBox="0 0 1000 1000" enable-background="new 0 0 1000 1000" xml:space="preserve">
<metadata> Svg Vector Icons : http://www.onlinewebfonts.com/icon </metadata>
<g><g transform="translate(0.000000,511.000000) scale(0.100000,-0.100000)"><path d="M5305.3,4722.3c-461.8-82.1-885.1-300.2-1159.6-597.7c-251.4-271.9-377.1-590.1-384.8-969.7c-2.6-195-5.1-197.5-110.3-302.7c-200.1-200.1-259.1-564.4-133.4-838.9c69.3-151.4,212.9-305.3,323.2-351.5c59-25.7,87.2-77,182.1-343.8c297.6-836.3,679.8-1393,1085.2-1582.9c336.1-156.5,936.4-156.5,1269.9,0C6793.3-72.5,7193.5,515,7478.2,1343.6c84.7,246.3,110.3,292.5,171.9,318.1c107.8,46.2,256.5,202.7,325.8,346.3c46.2,97.5,61.6,169.3,61.6,318.1c2.6,225.8-61.6,395.1-205.2,541.3c-87.2,89.8-92.4,102.6-100.1,305.3c-12.8,277.1-48.8,433.6-161.6,664.4c-171.9,356.6-525.9,638.8-995.4,795.3C6180.1,4765.9,5718.3,4799.3,5305.3,4722.3z M6041.6,3090.7c277.1-166.8,597.8-266.8,959.5-305.3c161.6-15.4,302.7-41.1,313-56.4c7.7-15.4,66.7-51.3,128.3-79.5c87.2-43.6,120.6-77,159.1-174.5c43.6-105.2,46.2-133.4,17.9-228.3c-41-138.5-125.7-218.1-251.4-241.1l-102.6-15.4L7160.1,1672c-228.3-682.4-438.7-1087.7-723.5-1375.1c-236-238.6-318.1-266.8-736.3-264.2c-256.5,2.6-300.2,7.7-428.4,71.8c-325.8,159.1-649.1,677.3-928.7,1488l-133.4,387.4l-94.9,15.4c-143.7,23.1-248.9,141.1-261.7,297.6c-10.3,87.2,0,153.9,28.2,207.8c56.4,110.3,295,256.5,515.7,318.1c384.8,105.2,818.4,379.7,1018.5,643.9l84.7,112.9l169.3-182.2C5774.8,3280.5,5918.4,3165.1,6041.6,3090.7z"/><path d="M261.6,3044.5c-89.8-41-161.6-79.5-161.6-87.2c0-10.3,351.5-720.9,782.5-1580.3s782.5-1570.1,782.5-1575.2c0-7.7-171.9-100.1-382.3-207.8c-210.4-107.8-400.2-210.4-420.7-225.7c-35.9-28.2-23.1-66.7,105.2-313c146.2-279.6,146.2-279.6,266.8-310.4c220.6-53.9,413-215.5,510.5-431c66.7-148.8,64.1-418.2-7.7-582.4l-53.9-130.8l420.7-833.8c477.2-946.6,538.7-1033.9,826.1-1175c246.3-120.6,479.7-159.1,718.3-120.6c438.7,77,774.8,356.6,921,772.2c59,166.8,69.3,492.6,20.5,667c-15.4,64.1-212.9,482.3-438.7,931.2c-354,705.5-415.6,815.8-466.9,815.8c-92.4,0-310.4,115.4-415.6,218.1c-146.2,148.8-205.2,297.6-205.2,525.9c0,141.1,15.4,223.2,53.9,307.9l53.9,115.4l-141.1,287.3L2886.1,397L2460.2,184L2034.3-28.9l-787.6,1575.2c-433.6,867.1-795.3,1575.2-805.6,1575.2C428.4,3118.9,348.9,3085.6,261.6,3044.5z M3404.3-1888.8c646.5-1218.6,795.3-1516.2,774.8-1554.6c-35.9-69.3-92.4-82.1-151.4-33.4c-28.2,23.1-405.4,710.6-836.3,1523.9C2498.7-652.3,2408.9-467.6,2434.6-418.8c20.5,38.5,48.7,51.3,97.5,46.2C2596.2-380.4,2670.6-508.6,3404.3-1888.8z M3029.7-2106.9c697.8-1308.4,790.2-1495.6,764.5-1544.4c-20.5-38.5-48.7-51.3-97.5-46.2c-61.6,7.7-138.5,138.5-869.7,1508.5c-438.7,826.1-800.4,1508.5-800.4,1521.3c-2.6,10.3,20.5,41.1,51.3,71.9c46.2,46.2,59,48.7,105.2,17.9C2213.9-598.4,2593.6-1280.8,3029.7-2106.9z M1747-757.5c41-30.8,1539.3-2829.7,1595.7-2975.9c46.2-123.1-84.7-202.7-169.3-102.6C3104.1-3756.5,1588-880.6,1588-829.3c0,25.7,20.5,61.6,46.2,74.4C1690.6-721.6,1698.3-721.6,1747-757.5z"/><path d="M6665-241.8c-164.2-123.1-402.8-241.2-561.8-277.1c-187.3-43.6-561.8-33.4-772.2,20.5c-105.2,25.7-300.2,97.5-433.6,156.5s-274.5,120.6-313,136c-120.6,48.8-654.2-84.7-1116-282.2c-171.9-74.4-212.9-100-212.9-146.2c0-66.7,89.8-266.8,148.8-331c53.9-61.6,197.5-133.4,307.9-159.1l82.1-18v179.6c0,171.9,2.6,179.6,71.8,207.8c79.5,33.3,315.6,105.2,346.3,105.2c10.3,0,18-195,18-436.1V-1522H5744h1513.6v438.7v438.7l71.8-18c38.5-7.7,133.4-41,210.4-71.8l141.1-56.4l7.7-366.9l7.7-364.3h369.4h372v-1231.4v-1231.4h-218.1h-218.1v1026.2v1026.2H6154.5c-1015.9,0-1847.1-5.1-1847.1-10.3c0-7.7,102.6-220.6,228.3-477.2c238.6-482.3,310.4-705.5,310.4-954.4c0-310.4-138.5-654.2-354-895.3l-112.9-125.7h2760.4H9900v638.8c0,695.2-20.5,918.4-118,1257.1c-284.8,992.8-1080.1,1783-2183.2,2165.2c-212.9,74.4-692.7,197.5-772.2,197.5C6813.8-136.6,6742-182.8,6665-241.8z M6390.5-2797c-292.5-554.1-343.8-636.2-400.2-643.9c-112.9-15.4-159,33.3-207.8,212.9c-25.7,92.4-53.9,166.7-64.1,166.7s-148.8-156.5-307.9-346.3c-161.6-189.9-295-341.2-300.2-336.1c-10.3,7.7,577.2,1277.6,602.9,1303.2c10.3,10.3,71.8,28.2,136,35.9l118,15.4l46.2-169.3c25.7-92.4,53.9-169.3,61.6-169.3c7.7,0,153.9,130.9,323.2,292.5c169.3,161.6,313,287.3,318.1,282.2C6718.8-2155.6,6575.2-2445.5,6390.5-2797z"/><path d="M1626.4-2820.1c-12.8-25.7-28.2-392.5-33.3-810.7l-10.3-764.5h482.3h482.3l-87.2,89.8c-56.4,59-223.2,359.2-451.5,813.3C1723.9-2922.7,1641.8-2781.6,1626.4-2820.1z"/></g></g>
</svg>